<mxfile host="65bd71144e">
    <diagram id="C9-vCu35f3h3cnIWmwWU" name="Page-1">
        <mxGraphModel dx="793" dy="703" grid="1" gridSize="10" guides="1" tooltips="1" connect="1" arrows="1" fold="1" page="1" pageScale="1" pageWidth="850" pageHeight="1100" math="0" shadow="0">
            <root>
                <mxCell id="0"/>
                <mxCell id="1" parent="0"/>
                <mxCell id="8zShDk5ECBRua-y3AWC6-7" style="edgeStyle=orthogonalEdgeStyle;rounded=0;orthogonalLoop=1;jettySize=auto;html=1;exitX=0.5;exitY=1;exitDx=0;exitDy=0;" parent="1" source="8zShDk5ECBRua-y3AWC6-1" target="8zShDk5ECBRua-y3AWC6-2" edge="1">
                    <mxGeometry relative="1" as="geometry"/>
                </mxCell>
                <mxCell id="8zShDk5ECBRua-y3AWC6-1" value="Start Install" style="rounded=1;whiteSpace=wrap;html=1;" parent="1" vertex="1">
                    <mxGeometry x="360" y="30" width="120" height="60" as="geometry"/>
                </mxCell>
                <mxCell id="8zShDk5ECBRua-y3AWC6-5" value="Yes" style="edgeStyle=orthogonalEdgeStyle;rounded=0;orthogonalLoop=1;jettySize=auto;html=1;entryX=1;entryY=0.5;entryDx=0;entryDy=0;" parent="1" source="8zShDk5ECBRua-y3AWC6-2" target="8zShDk5ECBRua-y3AWC6-3" edge="1">
                    <mxGeometry relative="1" as="geometry"/>
                </mxCell>
                <mxCell id="8zShDk5ECBRua-y3AWC6-13" value="No" style="edgeStyle=orthogonalEdgeStyle;rounded=0;orthogonalLoop=1;jettySize=auto;html=1;entryX=0;entryY=0.5;entryDx=0;entryDy=0;" parent="1" source="8zShDk5ECBRua-y3AWC6-2" target="8zShDk5ECBRua-y3AWC6-12" edge="1">
                    <mxGeometry relative="1" as="geometry"/>
                </mxCell>
                <mxCell id="8zShDk5ECBRua-y3AWC6-2" value="Is Local Install?" style="rhombus;whiteSpace=wrap;html=1;" parent="1" vertex="1">
                    <mxGeometry x="380" y="118" width="80" height="80" as="geometry"/>
                </mxCell>
                <mxCell id="8zShDk5ECBRua-y3AWC6-9" value="Yes" style="edgeStyle=orthogonalEdgeStyle;rounded=0;orthogonalLoop=1;jettySize=auto;html=1;entryX=1;entryY=0.5;entryDx=0;entryDy=0;" parent="1" source="8zShDk5ECBRua-y3AWC6-3" target="8zShDk5ECBRua-y3AWC6-8" edge="1">
                    <mxGeometry relative="1" as="geometry"/>
                </mxCell>
                <mxCell id="8zShDk5ECBRua-y3AWC6-24" value="No" style="edgeStyle=orthogonalEdgeStyle;rounded=0;orthogonalLoop=1;jettySize=auto;html=1;entryX=0.5;entryY=0;entryDx=0;entryDy=0;" parent="1" source="8zShDk5ECBRua-y3AWC6-3" target="8zShDk5ECBRua-y3AWC6-4" edge="1">
                    <mxGeometry relative="1" as="geometry"/>
                </mxCell>
                <mxCell id="8zShDk5ECBRua-y3AWC6-3" value="Has Lockfile?" style="rhombus;whiteSpace=wrap;html=1;" parent="1" vertex="1">
                    <mxGeometry x="240" y="118" width="80" height="80" as="geometry"/>
                </mxCell>
                <mxCell id="8zShDk5ECBRua-y3AWC6-4" value="ErrNoLockfile" style="rounded=0;whiteSpace=wrap;html=1;" parent="1" vertex="1">
                    <mxGeometry x="220" y="248" width="120" height="60" as="geometry"/>
                </mxCell>
                <mxCell id="8zShDk5ECBRua-y3AWC6-25" style="edgeStyle=orthogonalEdgeStyle;rounded=0;orthogonalLoop=1;jettySize=auto;html=1;entryX=0;entryY=0.5;entryDx=0;entryDy=0;" parent="1" source="8zShDk5ECBRua-y3AWC6-8" target="8zShDk5ECBRua-y3AWC6-23" edge="1">
                    <mxGeometry relative="1" as="geometry">
                        <Array as="points">
                            <mxPoint x="140" y="480"/>
                        </Array>
                    </mxGeometry>
                </mxCell>
                <mxCell id="8zShDk5ECBRua-y3AWC6-8" value="Validate Lockfile Sources" style="rounded=0;whiteSpace=wrap;html=1;" parent="1" vertex="1">
                    <mxGeometry x="80" y="128" width="120" height="60" as="geometry"/>
                </mxCell>
                <mxCell id="8zShDk5ECBRua-y3AWC6-15" value="Yes" style="edgeStyle=orthogonalEdgeStyle;rounded=0;orthogonalLoop=1;jettySize=auto;html=1;entryX=0;entryY=0.5;entryDx=0;entryDy=0;" parent="1" source="8zShDk5ECBRua-y3AWC6-12" target="8zShDk5ECBRua-y3AWC6-14" edge="1">
                    <mxGeometry relative="1" as="geometry"/>
                </mxCell>
                <mxCell id="8zShDk5ECBRua-y3AWC6-17" value="No" style="edgeStyle=orthogonalEdgeStyle;rounded=0;orthogonalLoop=1;jettySize=auto;html=1;entryX=0.5;entryY=0;entryDx=0;entryDy=0;" parent="1" source="8zShDk5ECBRua-y3AWC6-12" target="8zShDk5ECBRua-y3AWC6-16" edge="1">
                    <mxGeometry relative="1" as="geometry"/>
                </mxCell>
                <mxCell id="8zShDk5ECBRua-y3AWC6-12" value="Is Input Source?" style="rhombus;whiteSpace=wrap;html=1;" parent="1" vertex="1">
                    <mxGeometry x="520" y="118" width="80" height="80" as="geometry"/>
                </mxCell>
                <mxCell id="8zShDk5ECBRua-y3AWC6-27" style="edgeStyle=orthogonalEdgeStyle;rounded=0;orthogonalLoop=1;jettySize=auto;html=1;" parent="1" source="8zShDk5ECBRua-y3AWC6-14" edge="1">
                    <mxGeometry relative="1" as="geometry">
                        <mxPoint x="560" y="480" as="targetPoint"/>
                        <Array as="points">
                            <mxPoint x="700" y="480"/>
                        </Array>
                    </mxGeometry>
                </mxCell>
                <mxCell id="8zShDk5ECBRua-y3AWC6-14" value="Validate Input Source" style="rounded=0;whiteSpace=wrap;html=1;" parent="1" vertex="1">
                    <mxGeometry x="640" y="128" width="120" height="60" as="geometry"/>
                </mxCell>
                <mxCell id="8zShDk5ECBRua-y3AWC6-19" value="No" style="edgeStyle=orthogonalEdgeStyle;rounded=0;orthogonalLoop=1;jettySize=auto;html=1;exitX=0;exitY=0.5;exitDx=0;exitDy=0;entryX=1;entryY=0.5;entryDx=0;entryDy=0;" parent="1" source="8zShDk5ECBRua-y3AWC6-16" target="8zShDk5ECBRua-y3AWC6-18" edge="1">
                    <mxGeometry relative="1" as="geometry"/>
                </mxCell>
                <mxCell id="8zShDk5ECBRua-y3AWC6-21" value="Yes" style="edgeStyle=orthogonalEdgeStyle;rounded=0;orthogonalLoop=1;jettySize=auto;html=1;entryX=0.5;entryY=0;entryDx=0;entryDy=0;" parent="1" source="8zShDk5ECBRua-y3AWC6-16" target="8zShDk5ECBRua-y3AWC6-20" edge="1">
                    <mxGeometry relative="1" as="geometry"/>
                </mxCell>
                <mxCell id="8zShDk5ECBRua-y3AWC6-16" value="Has Module File?" style="rhombus;whiteSpace=wrap;html=1;" parent="1" vertex="1">
                    <mxGeometry x="520" y="238" width="80" height="80" as="geometry"/>
                </mxCell>
                <mxCell id="8zShDk5ECBRua-y3AWC6-18" value="ErrNoModuleFile" style="rounded=0;whiteSpace=wrap;html=1;" parent="1" vertex="1">
                    <mxGeometry x="360" y="248" width="120" height="60" as="geometry"/>
                </mxCell>
                <mxCell id="8zShDk5ECBRua-y3AWC6-26" style="edgeStyle=orthogonalEdgeStyle;rounded=0;orthogonalLoop=1;jettySize=auto;html=1;entryX=1;entryY=0.5;entryDx=0;entryDy=0;" parent="1" source="8zShDk5ECBRua-y3AWC6-20" target="8zShDk5ECBRua-y3AWC6-23" edge="1">
                    <mxGeometry relative="1" as="geometry">
                        <Array as="points">
                            <mxPoint x="560" y="480"/>
                        </Array>
                    </mxGeometry>
                </mxCell>
                <mxCell id="8zShDk5ECBRua-y3AWC6-20" value="Validate Module File Sources" style="rounded=0;whiteSpace=wrap;html=1;" parent="1" vertex="1">
                    <mxGeometry x="500" y="370" width="120" height="60" as="geometry"/>
                </mxCell>
                <mxCell id="8zShDk5ECBRua-y3AWC6-23" value="Verify Validated Sources" style="rounded=0;whiteSpace=wrap;html=1;" parent="1" vertex="1">
                    <mxGeometry x="360" y="450" width="120" height="60" as="geometry"/>
                </mxCell>
            </root>
        </mxGraphModel>
    </diagram>
</mxfile>